<?xml version="1.0" encoding="UTF-8" standalone="no"?>
<svg
   xmlns:dc="http://purl.org/dc/elements/1.1/"
   xmlns:cc="http://creativecommons.org/ns#"
   xmlns:rdf="http://www.w3.org/1999/02/22-rdf-syntax-ns#"
   xmlns:svg="http://www.w3.org/2000/svg"
   xmlns="http://www.w3.org/2000/svg"
   id="svg8"
   version="1.1"
   viewBox="0 0 171.71458 127"
   height="480"
   width="649">
  <defs
     id="defs2">
    <rect
       id="rect137"
       height="52.311683"
       width="173.48477"
       y="78.165795"
       x="11.937833" />
  </defs>
  <metadata
     id="metadata5">
    <rdf:RDF>
      <cc:Work
         rdf:about="">
        <dc:format>image/svg+xml</dc:format>
        <dc:type
           rdf:resource="http://purl.org/dc/dcmitype/StillImage" />
        <dc:title></dc:title>
      </cc:Work>
    </rdf:RDF>
  </metadata>
  <g
     id="layer1">
    <g
       transform="matrix(2.1251507,0,0,2.1251507,34.646682,-1.9459901)"
       id="surface1">
      <path
         d="M 4,11 H 44 V 27 H 4 Z"
         fill="#448aff"
         id="path95" />
      <path
         d="M 42,41 H 24 V 27 h 20 v 12 c 0,1.105 -0.895,2 -2,2 z"
         fill="#1565c0"
         id="path97" />
      <path
         d="M 24,41 H 6 C 4.895,41 4,40.105 4,39 V 27 h 20 z"
         fill="#e0e0e0"
         id="path99" />
      <path
         d="M 44,11 H 4 V 9 C 4,7.895 4.895,7 6,7 h 36 c 1.105,0 2,0.895 2,2 z"
         fill="#9e9e9e"
         id="path101" />
      <path
         d="M 8,9 C 8,9.55 7.55,10 7,10 6.45,10 6,9.55 6,9 6,8.45 6.45,8 7,8 7.55,8 8,8.45 8,9 Z"
         fill="#ffffff"
         id="path103" />
      <path
         d="m 11,9 c 0,0.55 -0.45,1 -1,1 C 9.45,10 9,9.55 9,9 9,8.45 9.45,8 10,8 c 0.55,0 1,0.45 1,1 z"
         fill="#ffffff"
         id="path105" />
      <path
         d="M 7,29.5 H 21"
         fill="none"
         stroke-width="1"
         stroke-linecap="butt"
         stroke-linejoin="miter"
         stroke="#9e9e9e"
         stroke-opacity="1"
         stroke-miterlimit="10"
         id="path107" />
      <path
         d="M 7,32.5 H 21"
         fill="none"
         stroke-width="1"
         stroke-linecap="butt"
         stroke-linejoin="miter"
         stroke="#9e9e9e"
         stroke-opacity="1"
         stroke-miterlimit="10"
         id="path109" />
      <path
         d="M 7,35.5 H 21"
         fill="none"
         stroke-width="1"
         stroke-linecap="butt"
         stroke-linejoin="miter"
         stroke="#9e9e9e"
         stroke-opacity="1"
         stroke-miterlimit="10"
         id="path111" />
      <path
         d="m 7,38.5 h 9"
         fill="none"
         stroke-width="1"
         stroke-linecap="butt"
         stroke-linejoin="miter"
         stroke="#9e9e9e"
         stroke-opacity="1"
         stroke-miterlimit="10"
         id="path113" />
    </g>
    <text
       transform="matrix(2.4075105,0,0,2.4075105,-16.251387,-96.592591)"
       style="font-style:normal;font-weight:normal;font-size:10.5833px;line-height:1.25;font-family:sans-serif;white-space:pre;shape-inside:url(#rect137);fill:#ff6600;fill-opacity:1;stroke:none;"
       id="text135"
       xml:space="preserve"><tspan
         x="11.9375"
         y="87.638069"><tspan
           style="font-style:normal;font-variant:normal;font-weight:normal;font-stretch:normal;font-size:10.5833px;font-family:'Arca Majora 3';-inkscape-font-specification:'Arca Majora 3, Normal';font-variant-ligatures:normal;font-variant-caps:normal;font-variant-numeric:normal;font-variant-east-asian:normal;fill:#ff6600">Google Sites</tspan></tspan></text>
  </g>
</svg>
