<?xml version="1.0" encoding="UTF-8" standalone="no"?>
<svg
   xmlns:dc="http://purl.org/dc/elements/1.1/"
   xmlns:cc="http://creativecommons.org/ns#"
   xmlns:rdf="http://www.w3.org/1999/02/22-rdf-syntax-ns#"
   xmlns:svg="http://www.w3.org/2000/svg"
   xmlns="http://www.w3.org/2000/svg"
   width="640"
   height="480"
   viewBox="0 0 169.33333 127"
   version="1.1"
   id="svg228">
  <defs
     id="defs222" />
  <metadata
     id="metadata225">
    <rdf:RDF>
      <cc:Work
         rdf:about="">
        <dc:format>image/svg+xml</dc:format>
        <dc:type
           rdf:resource="http://purl.org/dc/dcmitype/StillImage" />
        <dc:title></dc:title>
      </cc:Work>
    </rdf:RDF>
  </metadata>
  <path
     d="m 21.13084,7.0581066 -1.08165,1.081644 V 36.692634 l 1.08165,1.081648 h 20.41985 v 5.061471 h -3.07155 v 6.143099 h 3.07155 6.14312 3.07155 v -6.143099 h -3.07155 v -5.061471 h 20.41985 l 1.08165,-1.081648 V 8.1397506 l -1.08165,-1.081644 z m 1.08164,2.165087 H 67.03202 V 35.610983 H 22.21248 Z"
     style="color:#000000;font-style:normal;font-variant:normal;font-weight:normal;font-stretch:normal;font-size:medium;line-height:normal;font-family:sans-serif;font-variant-ligatures:normal;font-variant-position:normal;font-variant-caps:normal;font-variant-numeric:normal;font-variant-alternates:normal;font-variant-east-asian:normal;font-feature-settings:normal;font-variation-settings:normal;text-indent:0;text-align:start;text-decoration:none;text-decoration-line:none;text-decoration-style:solid;text-decoration-color:#000000;letter-spacing:normal;word-spacing:normal;text-transform:none;writing-mode:lr-tb;direction:ltr;text-orientation:mixed;dominant-baseline:auto;baseline-shift:baseline;text-anchor:start;white-space:normal;shape-padding:0;shape-margin:0;inline-size:0;clip-rule:nonzero;display:inline;overflow:visible;visibility:visible;isolation:auto;mix-blend-mode:normal;color-interpolation:sRGB;color-interpolation-filters:linearRGB;solid-color:#000000;solid-opacity:1;vector-effect:none;fill:#42e8bb;fill-opacity:1;fill-rule:nonzero;stroke:none;stroke-width:2.16367;stroke-linecap:round;stroke-linejoin:bevel;stroke-miterlimit:4;stroke-dasharray:none;stroke-dashoffset:0;stroke-opacity:1;paint-order:fill markers stroke;color-rendering:auto;image-rendering:auto;shape-rendering:auto;text-rendering:auto;enable-background:accumulate;stop-color:#000000"
     id="path2664" />
  <path
     d="m 100.56898,7.0581066 -1.08164,1.081644 V 36.692634 l 1.08164,1.081648 h 20.41866 v 5.061471 h -3.07156 v 6.143099 h 3.07156 6.14311 3.07156 v -6.143099 h -3.07156 v -5.061471 h 20.41866 l 1.08104,-1.081648 V 8.1397506 l -1.08104,-1.081644 z m 1.08164,2.165087 h 44.81715 V 35.610983 h -44.81715 z"
     style="color:#000000;font-style:normal;font-variant:normal;font-weight:normal;font-stretch:normal;font-size:medium;line-height:normal;font-family:sans-serif;font-variant-ligatures:normal;font-variant-position:normal;font-variant-caps:normal;font-variant-numeric:normal;font-variant-alternates:normal;font-variant-east-asian:normal;font-feature-settings:normal;font-variation-settings:normal;text-indent:0;text-align:start;text-decoration:none;text-decoration-line:none;text-decoration-style:solid;text-decoration-color:#000000;letter-spacing:normal;word-spacing:normal;text-transform:none;writing-mode:lr-tb;direction:ltr;text-orientation:mixed;dominant-baseline:auto;baseline-shift:baseline;text-anchor:start;white-space:normal;shape-padding:0;shape-margin:0;inline-size:0;clip-rule:nonzero;display:inline;overflow:visible;visibility:visible;isolation:auto;mix-blend-mode:normal;color-interpolation:sRGB;color-interpolation-filters:linearRGB;solid-color:#000000;solid-opacity:1;vector-effect:none;fill:#42e8bb;fill-opacity:1;fill-rule:nonzero;stroke:none;stroke-width:2.16367;stroke-linecap:round;stroke-linejoin:bevel;stroke-miterlimit:4;stroke-dasharray:none;stroke-dashoffset:0;stroke-opacity:1;paint-order:fill markers stroke;color-rendering:auto;image-rendering:auto;shape-rendering:auto;text-rendering:auto;enable-background:accumulate;stop-color:#000000"
     id="path2673" />
  <g
     transform="matrix(1.1609034,0,0,1.1609034,-31.48842,-104.26624)"
     style="fill:#42e8bb;fill-opacity:1"
     id="g2690">
    <circle
       cy="167.27902"
       cx="65.79158"
       id="circle2636"
       style="fill:#42e8bb;fill-opacity:1;stroke:none;stroke-width:0.342801"
       r="7.9375" />
    <path
       d="m 65.79158,175.21773 a 11.906251,8.4666557 0 0 0 -11.897247,8.46668 11.906251,8.4666557 0 0 0 0,0.005 v 12.69379 h 23.812499 v -12.69999 a 11.906251,8.4666557 0 0 0 -11.906249,-8.46668 11.906251,8.4666557 0 0 0 -0.0072,0 z"
       style="fill:#42e8bb;fill-opacity:1;stroke:none;stroke-width:0.118457"
       id="path2638" />
  </g>
  <g
     transform="matrix(1.1609034,0,0,1.1609034,-31.48842,-104.26624)"
     style="fill:#42e8bb;fill-opacity:1"
     id="g2694">
    <circle
       r="7.9375"
       style="fill:#42e8bb;fill-opacity:1;stroke:none;stroke-width:0.342801"
       id="circle2640"
       cx="135.04057"
       cy="167.27902" />
    <path
       id="path2642"
       style="fill:#42e8bb;fill-opacity:1;stroke:none;stroke-width:0.118457"
       d="m 135.04058,175.21773 a 11.906251,8.4666557 0 0 0 -11.89725,8.46668 11.906251,8.4666557 0 0 0 0,0.005 v 12.69379 h 23.8125 v -12.69999 a 11.906251,8.4666557 0 0 0 -11.90625,-8.46668 11.906251,8.4666557 0 0 0 -0.007,0 z" />
  </g>
  <path
     d="m 43.50101,55.752481 v 6.142511 h 3.07216 v -6.142511 z m 79.86168,0 v 6.142511 h 3.07036 v -6.142511 z m -79.86168,9.21467 v 6.142521 h 3.07216 v -6.142521 z m 79.86168,0 v 6.142521 h 3.07036 v -6.142521 z m -78.3247,7.677091 v 3.07276 h 6.14251 v -3.07276 z m 9.21467,0 v 3.07276 h 6.14251 v -3.07276 z m 9.21467,0 v 3.07276 h 6.14251 v -3.07276 z m 9.21467,0 v 3.07276 h 6.14251 v -3.07276 z m 9.21467,0 v 3.07276 h 6.14252 v -3.07276 z m 9.21467,0 v 3.07276 h 6.14252 v -3.07276 z m 9.21468,0 v 3.07276 h 6.14251 v -3.07276 z m 9.21467,0 v 3.07276 h 6.14251 v -3.07276 z m 9.21467,0 v 3.07276 h 6.14251 v -3.07276 z"
     style="color:#000000;font-style:normal;font-variant:normal;font-weight:normal;font-stretch:normal;font-size:medium;line-height:normal;font-family:sans-serif;font-variant-ligatures:normal;font-variant-position:normal;font-variant-caps:normal;font-variant-numeric:normal;font-variant-alternates:normal;font-variant-east-asian:normal;font-feature-settings:normal;font-variation-settings:normal;text-indent:0;text-align:start;text-decoration:none;text-decoration-line:none;text-decoration-style:solid;text-decoration-color:#000000;letter-spacing:normal;word-spacing:normal;text-transform:none;writing-mode:lr-tb;direction:ltr;text-orientation:mixed;dominant-baseline:auto;baseline-shift:baseline;text-anchor:start;white-space:normal;shape-padding:0;shape-margin:0;inline-size:0;clip-rule:nonzero;display:inline;overflow:visible;visibility:visible;isolation:auto;mix-blend-mode:normal;color-interpolation:sRGB;color-interpolation-filters:linearRGB;solid-color:#000000;solid-opacity:1;vector-effect:none;fill:#42e8bb;fill-opacity:1;fill-rule:nonzero;stroke:none;stroke-width:3.07155;stroke-linecap:butt;stroke-linejoin:miter;stroke-miterlimit:4;stroke-dasharray:6.14312, 3.07154999999999978;stroke-dashoffset:0;stroke-opacity:1;color-rendering:auto;image-rendering:auto;shape-rendering:auto;text-rendering:auto;enable-background:accumulate;stop-color:#000000"
     id="path2685" />
</svg>
